<svg width="80" height="80" viewBox="0 0 80 80" fill="none" xmlns="http://www.w3.org/2000/svg">
<path fill-rule="evenodd" d="M42.3577 14.3093C43.6594 15.6111 43.6594 17.7216 42.3577 19.0234L21.3814 39.9997L42.3577 60.976C43.6594 62.2777 43.6594 64.3883 42.3577 65.69C41.0559 66.9918 38.9454 66.9918 37.6436 65.69L14.3103 42.3567C13.0085 41.0549 13.0085 38.9444 14.3103 37.6426L37.6436 14.3093C38.9454 13.0076 41.0559 13.0076 42.3577 14.3093Z M13.334 40.0003C13.334 38.1594 14.8264 36.667 16.6673 36.667H63.334C65.1749 36.667 66.6673 38.1594 66.6673 40.0003C66.6673 41.8413 65.1749 43.3337 63.334 43.3337H16.6673C14.8264 43.3337 13.334 41.8413 13.334 40.0003Z" fill="currentColor"/>
</svg> 