<svg width="80" height="80" viewBox="0 0 80 80" fill="none" xmlns="http://www.w3.org/2000/svg">
<path fill-rule="evenodd" clip-rule="evenodd" d="M40.0002 9.99967C23.4316 9.99967 10.0002 23.4311 10.0002 39.9997C10.0002 56.5682 23.4316 69.9997 40.0002 69.9997C56.5687 69.9997 70.0002 56.5682 70.0002 39.9997C70.0002 23.4311 56.5687 9.99967 40.0002 9.99967ZM3.3335 39.9997C3.3335 19.7492 19.7497 3.33301 40.0002 3.33301C60.2506 3.33301 76.6668 19.7492 76.6668 39.9997C76.6668 60.2501 60.2506 76.6663 40.0002 76.6663C19.7497 76.6663 3.3335 60.2501 3.3335 39.9997ZM52.3569 30.9763C53.6586 32.2781 53.6586 34.3886 52.3569 35.6904L39.0235 49.0237C37.7218 50.3254 35.6112 50.3254 34.3095 49.0237L27.6428 42.357C26.3411 41.0553 26.3411 38.9447 27.6428 37.643C28.9446 36.3412 31.0551 36.3412 32.3569 37.643L36.6665 41.9526L47.6428 30.9763C48.9446 29.6746 51.0551 29.6746 52.3569 30.9763Z" fill="#FEFEFE"/>
</svg>