<svg width="80" height="80" viewBox="0 0 80 80" fill="none" xmlns="http://www.w3.org/2000/svg">
<path d="M12.7534 3.51924H11.5815C11.1998 3.54435 10.8187 3.59404 10.4407 3.66856C8.72524 4.00674 7.14963 4.84099 5.91306 6.06582C4.67649 7.29064 3.83448 8.85104 3.49356 10.5497C3.15264 12.2483 3.32813 14.0089 3.99777 15.6088C4.6674 17.2087 5.80106 18.5761 7.25555 19.538C8.71003 20.4999 10.42 21.0132 12.1691 21.0129C13.3304 21.0126 14.4803 20.7859 15.5532 20.3457C16.626 19.9055 17.6009 19.2603 18.4219 18.447C19.243 17.6338 19.8942 16.6684 20.3384 15.6059C20.7826 14.5435 21.0112 13.4048 21.011 12.2549C21.0107 10.523 20.4917 8.83012 19.5197 7.39031C18.5477 5.95049 17.1663 4.82841 15.5503 4.16595C14.655 3.79895 13.71 3.58214 12.7534 3.51924ZM76.8649 46.4709C76.3813 34.9399 72.8254 26.4465 58.6329 26.4465C55.7349 26.34 52.862 27.0138 50.3201 28.396C47.7782 29.7783 45.6626 31.8174 44.1985 34.296H43.9936V27.6552H29.364V76.2486H44.6033V52.2097C44.6033 45.8707 45.8177 39.7313 53.7548 39.7313C61.5792 39.7313 61.6807 46.9851 61.6807 52.6199V76.2502H76.8649V46.4709ZM4.53356 76.2502H19.7887V27.6552H4.53356V76.2502Z" fill="currentColor"/>
</svg> 