<svg width="80" height="80" viewBox="0 0 80 80" fill="none" xmlns="http://www.w3.org/2000/svg">
<path d="M65.9555 65.7009H55.0313V48.7615C55.0313 44.7222 54.9584 39.5223 49.3495 39.5223C43.6598 39.5223 42.7892 43.9233 42.7892 48.4675V65.6998H31.8649V30.8656H42.3522V35.626H42.4991C43.5486 33.8492 45.0652 32.3875 46.8873 31.3966C48.7095 30.4057 50.769 29.9227 52.8464 29.9991C63.9186 29.9991 65.9601 37.2102 65.9601 46.5914L65.9555 65.7009ZM19.5387 26.104C18.2849 26.1042 17.0591 25.7363 16.0165 25.0467C14.9738 24.3572 14.1611 23.377 13.6811 22.2301C13.2011 21.0832 13.0753 19.8211 13.3197 18.6034C13.5641 17.3857 14.1677 16.2672 15.0541 15.3892C15.9405 14.5111 17.07 13.9131 18.2997 13.6707C19.5294 13.4283 20.8041 13.5523 21.9625 14.0272C23.121 14.5021 24.1113 15.3065 24.808 16.3386C25.5048 17.3707 25.8769 18.5843 25.8771 19.8258C25.8772 20.6501 25.7134 21.4664 25.3949 22.228C25.0765 22.9896 24.6097 23.6817 24.0211 24.2647C23.4325 24.8476 22.7337 25.3101 21.9646 25.6257C21.1955 25.9413 20.3712 26.1038 19.5387 26.104ZM25.0008 65.7009H14.0652V30.8656H25.0008V65.7009ZM71.4017 3.50497H8.57578C7.14981 3.48904 5.77571 4.03431 4.75556 5.02096C3.73541 6.00761 3.15266 7.35493 3.13525 8.76684V71.2321C3.15206 72.6447 3.73447 73.9929 4.75459 74.9806C5.77471 75.9683 7.1491 76.5146 8.57578 76.4996H71.4017C72.8312 76.5173 74.2095 75.9726 75.2336 74.9849C76.2578 73.9973 76.8441 72.6475 76.8639 71.2321V8.76233C76.8435 7.34762 76.2568 5.99878 75.2326 5.01215C74.2084 4.02552 72.8305 3.48181 71.4017 3.50046" fill="currentColor"/>
</svg> 