<svg width="297" height="80" viewBox="0 0 297 80" fill="none" xmlns="http://www.w3.org/2000/svg">
<path d="M0 14.5667H11.0897V54.6854H31.62V64.8496H0V14.5667Z M36.5229 30.7559H47.1765V64.8305H36.5229V30.7559ZM41.8498 13.8157C43.072 13.8159 44.2668 14.1761 45.283 14.8506C46.2991 15.5252 47.0911 16.4839 47.5587 17.6055C48.0263 18.7271 48.1485 19.9612 47.9099 21.1518C47.6713 22.3423 47.0826 23.4359 46.2183 24.2942C45.3539 25.1525 44.2527 25.737 43.0539 25.9737C41.8551 26.2105 40.6125 26.0889 39.4833 25.6243C38.3541 25.1597 37.389 24.3729 36.7099 23.3636C36.0309 22.3542 35.6685 21.1676 35.6685 19.9536C35.6685 19.1475 35.8283 18.3492 36.139 17.6045C36.4497 16.8597 36.905 16.183 37.479 15.613C38.053 15.0431 38.7344 14.591 39.4844 14.2826C40.2343 13.9742 41.0381 13.8155 41.8498 13.8157Z M91.7417 14.5588H102.395V44.6094L114.469 30.7408H127.531L113.548 46.5161L127.237 64.8451H113.847L102.537 48.0018H102.397V64.8429H91.7439L91.7417 14.5588Z M53.083 30.7595H63.3138V35.4162H63.4591C64.481 33.6774 65.9592 32.2469 67.7359 31.2775C69.5126 30.3081 71.521 29.8361 73.5467 29.912C84.3501 29.912 86.3388 36.9713 86.3388 46.1424V64.8285H75.6852V48.2619C75.6852 44.3073 75.6119 39.2241 70.1364 39.2241C64.5988 39.2241 63.7443 43.5303 63.7443 47.9742V64.8241H53.0908L53.083 30.7595Z M149.967 43.8301C149.987 42.9717 149.832 42.1182 149.51 41.3211C149.189 40.524 148.707 39.8001 148.096 39.1932C147.484 38.5862 146.755 38.1088 145.952 37.79C145.15 37.4712 144.29 37.3176 143.426 37.3384C141.564 37.2234 139.732 37.8394 138.324 39.0538C136.915 40.2682 136.044 41.9836 135.897 43.8301H149.967ZM158.991 58.9298C157.221 61.062 154.995 62.7764 152.475 63.9489C149.956 65.1214 147.205 65.7227 144.422 65.7092C133.769 65.7092 125.239 58.6466 125.239 47.7098C125.239 36.773 133.768 29.7136 144.422 29.7136C154.38 29.7136 160.625 36.7675 160.625 47.7098V51.0273H135.897C136.205 52.9087 137.187 54.6163 138.663 55.8354C140.138 57.0545 142.007 57.7029 143.926 57.6612C145.443 57.6519 146.933 57.266 148.26 56.5388C149.588 55.8115 150.712 54.7659 151.529 53.4972L158.991 58.9298Z M182.831 38.9926C177.504 38.9926 174.308 42.525 174.308 47.6722C174.308 52.8193 177.503 56.355 182.831 56.355C188.159 56.355 191.362 52.8281 191.362 47.6722C191.362 42.5162 188.165 38.9926 182.831 38.9926ZM201.17 64.824H191.362V60.3052H191.217C189.986 61.9488 188.39 63.2882 186.553 64.2188C184.716 65.1494 182.687 65.6463 180.625 65.6705C170.389 65.6705 163.646 58.3334 163.646 47.9576C163.646 38.4283 169.613 29.6782 179.422 29.6782C183.831 29.6782 187.949 30.8763 190.365 34.1971H190.505V14.5554H201.169L201.17 64.824Z M273.09 64.8439H262.437V48.2739C262.437 44.3227 262.366 39.2362 256.896 39.2362C251.347 39.2362 250.498 43.5412 250.498 47.9862V64.8428H239.844V30.7682H250.072V35.4249H250.215C251.239 33.6868 252.718 32.257 254.495 31.2877C256.272 30.3184 258.28 29.846 260.306 29.9207C271.104 29.9207 273.095 36.9745 273.095 46.1511L273.09 64.8439ZM227.824 26.1105C226.601 26.1107 225.405 25.7508 224.389 25.0763C223.372 24.4018 222.579 23.443 222.111 22.3211C221.643 21.1992 221.52 19.9646 221.759 18.7735C221.997 17.5824 222.586 16.4882 223.45 15.6294C224.315 14.7705 225.416 14.1855 226.615 13.9484C227.815 13.7112 229.058 13.8326 230.187 14.2971C231.317 14.7617 232.283 15.5485 232.962 16.5581C233.642 17.5677 234.005 18.7548 234.005 19.9692C234.005 20.7756 233.845 21.574 233.535 22.319C233.224 23.0641 232.769 23.741 232.195 24.3113C231.621 24.8816 230.939 25.334 230.189 25.6427C229.439 25.9514 228.636 26.1103 227.824 26.1105ZM233.15 64.8439H222.486V30.7682H233.15V64.8439ZM278.401 4.00438H217.132C215.742 3.98879 214.402 4.52217 213.407 5.4873C212.412 6.45244 211.844 7.77036 211.827 9.15148V70.2544C211.843 71.6362 212.411 72.955 213.406 73.9211C214.401 74.8873 215.741 75.4217 217.132 75.407H278.401C279.795 75.4244 281.14 74.8915 282.138 73.9254C283.137 72.9592 283.709 71.6389 283.728 70.2544V9.14708C283.708 7.76322 283.136 6.44379 282.137 5.47868C281.139 4.51357 279.795 3.98171 278.401 3.99997" fill="currentColor"/>
</svg> 