<svg width="80" height="80" viewBox="0 0 80 80" fill="none" xmlns="http://www.w3.org/2000/svg">
<path fill-rule="evenodd" d="M59.9993 9.99967C56.3175 9.99967 53.3327 12.9844 53.3327 16.6663C53.3327 20.3482 56.3175 23.333 59.9993 23.333C63.6812 23.333 66.666 20.3482 66.666 16.6663C66.666 12.9844 63.6812 9.99967 59.9993 9.99967ZM46.666 16.6663C46.666 9.30254 52.6356 3.33301 59.9993 3.33301C67.3631 3.33301 73.3327 9.30254 73.3327 16.6663C73.3327 24.0301 67.3631 29.9997 59.9993 29.9997C52.6356 29.9997 46.666 24.0301 46.666 16.6663Z M19.9993 33.3337C16.3174 33.3337 13.3327 36.3184 13.3327 40.0003C13.3327 43.6822 16.3174 46.667 19.9993 46.667C23.6812 46.667 26.666 43.6822 26.666 40.0003C26.666 36.3184 23.6812 33.3337 19.9993 33.3337ZM6.66602 40.0003C6.66602 32.6365 12.6356 26.667 19.9993 26.667C27.3631 26.667 33.3327 32.6365 33.3327 40.0003C33.3327 47.3641 27.3631 53.3337 19.9993 53.3337C12.6356 53.3337 6.66602 47.3641 6.66602 40.0003Z M59.9993 56.6667C56.3175 56.6667 53.3327 59.6514 53.3327 63.3333C53.3327 67.0152 56.3175 70 59.9993 70C63.6812 70 66.666 67.0152 66.666 63.3333C66.666 59.6514 63.6812 56.6667 59.9993 56.6667ZM46.666 63.3333C46.666 55.9695 52.6356 50 59.9993 50C67.3631 50 73.3327 55.9695 73.3327 63.3333C73.3327 70.6971 67.3631 76.6667 59.9993 76.6667C52.6356 76.6667 46.666 70.6971 46.666 63.3333Z M25.7527 43.3548C26.6796 41.7642 28.7204 41.2262 30.311 42.1531L53.0776 55.4197C54.6682 56.3466 55.2063 58.3874 54.2794 59.978C53.3525 61.5686 51.3117 62.1067 49.7211 61.1798L26.9544 47.9131C25.3639 46.9862 24.8258 44.9454 25.7527 43.3548Z M54.245 20.02C55.1729 21.61 54.6361 23.6512 53.0461 24.579L30.3128 37.8457C28.7228 38.7736 26.6816 38.2368 25.7537 36.6468C24.8259 35.0568 25.3626 33.0157 26.9526 32.0878L49.6859 18.8211C51.2759 17.8932 53.3171 18.43 54.245 20.02Z" fill="currentColor"/>
</svg> 