<svg width="80" height="80" viewBox="0 0 80 80" fill="none" xmlns="http://www.w3.org/2000/svg">
<path d="M36.9803 4.34945C37.8497 3.68997 38.9109 3.33301 40.0021 3.33301C41.0933 3.33301 42.1545 3.68997 43.0239 4.34945C43.8933 5.00891 44.523 5.93467 44.8171 6.9855C44.8233 7.00761 44.8293 7.02978 44.835 7.05201L50.1048 27.5012C50.1049 27.5015 50.1049 27.5017 50.105 27.502C50.2539 28.0785 50.5544 28.6045 50.9754 29.0255C51.3964 29.4465 51.9225 29.7471 52.4989 29.896C52.4992 29.896 52.4995 29.8961 52.4998 29.8962L72.949 35.166C72.9672 35.1707 72.9853 35.1755 73.0035 35.1805C74.0585 35.4715 74.9888 36.1006 75.6519 36.9713C76.3149 37.8419 76.674 38.9061 76.674 40.0005C76.674 41.0949 76.3149 42.1591 75.6519 43.0297C74.9888 43.9004 74.0585 44.5295 73.0035 44.8205C72.9853 44.8255 72.9672 44.8304 72.949 44.835L52.4998 50.1048C52.4995 50.1049 52.4992 50.105 52.4989 50.105C51.9225 50.2539 51.3964 50.5545 50.9754 50.9755C50.5542 51.3967 50.2536 51.923 50.1048 52.4998L44.8315 72.9495C44.8275 72.9652 44.8233 72.981 44.819 72.9966C44.8173 73.0029 44.8155 73.0092 44.8138 73.0155C44.5197 74.0663 43.8899 74.9921 43.0206 75.6516C42.1512 76.311 41.09 76.668 39.9988 76.668C38.9076 76.668 37.8463 76.311 36.977 75.6516C36.1076 74.9921 35.4779 74.0663 35.1838 73.0155C35.1776 72.9934 35.1716 72.9712 35.1659 72.949L29.8961 52.4998C29.8961 52.4995 29.896 52.4993 29.8959 52.499C29.747 51.9225 29.4465 51.3965 29.0255 50.9755C28.6043 50.5543 28.0779 50.2536 27.5011 50.1048L7.05146 44.8316C7.02543 44.8249 6.99948 44.8178 6.97362 44.8105C5.92694 44.5134 5.00571 43.883 4.34974 43.0149C3.69378 42.1469 3.33887 41.0885 3.33887 40.0005C3.33887 38.9125 3.69378 37.8541 4.34974 36.9861C5.00571 36.118 5.92694 35.4876 6.97362 35.1905C6.99932 35.1832 7.0251 35.1762 7.05097 35.1695L27.501 29.8929L28.3335 33.1192L27.5016 29.8927C28.0782 29.7441 28.6044 29.4437 29.0256 29.0228C29.4468 28.6019 29.7475 28.0759 29.8966 27.4994L35.1694 7.05152C35.1751 7.02945 35.181 7.00744 35.1871 6.9855C35.4812 5.93469 36.111 5.00892 36.9803 4.34945ZM29.166 36.3483L15.0136 40L29.1661 43.6494L29.1664 43.6495C30.8968 44.0959 32.4759 44.9978 33.7395 46.2614C35.0031 47.525 35.9051 49.1042 36.3514 50.8345L39.9993 64.9898L43.6494 50.8348L43.6495 50.8345C44.0959 49.1042 44.9978 47.525 46.2614 46.2614C47.525 44.9978 49.1041 44.0959 50.8345 43.6495L64.9943 40.0005L50.8345 36.3515C49.1041 35.9051 47.525 35.0032 46.2614 33.7396C44.9978 32.476 44.0959 30.8969 43.6495 29.1665L43.6492 29.1657L40.0016 15.0112L36.351 29.1683C35.9038 30.8977 35.0015 32.4758 33.738 33.7385C32.4744 35.0011 30.8957 35.9023 29.166 36.3483Z
M66.6663 6.66699C68.5073 6.66699 69.9997 8.15938 69.9997 10.0003V23.3337C69.9997 25.1746 68.5073 26.667 66.6663 26.667C64.8254 26.667 63.333 25.1746 63.333 23.3337V10.0003C63.333 8.15938 64.8254 6.66699 66.6663 6.66699Z
M56.667 16.6663C56.667 14.8254 58.1594 13.333 60.0003 13.333H73.3337C75.1746 13.333 76.667 14.8254 76.667 16.6663C76.667 18.5073 75.1746 19.9997 73.3337 19.9997H60.0003C58.1594 19.9997 56.667 18.5073 56.667 16.6663Z
M13.3333 53.333C15.1743 53.333 16.6667 54.8254 16.6667 56.6663V63.333C16.6667 65.174 15.1743 66.6663 13.3333 66.6663C11.4924 66.6663 10 65.174 10 63.333V56.6663C10 54.8254 11.4924 53.333 13.3333 53.333Z
M6.66699 60.0003C6.66699 58.1594 8.15938 56.667 10.0003 56.667H16.667C18.5079 56.667 20.0003 58.1594 20.0003 60.0003C20.0003 61.8413 18.5079 63.3337 16.667 63.3337H10.0003C8.15938 63.3337 6.66699 61.8413 6.66699 60.0003Z" fill="#FEFEFE"/>
</svg> 