<svg width="80" height="80" viewBox="0 0 80 80" fill="none" xmlns="http://www.w3.org/2000/svg">
<path fill-rule="evenodd" clip-rule="evenodd" d="M16.666 40c-1.841 0-3.333 1.492-3.333 3.333v23.334c0 1.841 1.492 3.333 3.333 3.333h46.667c1.841 0 3.333-1.492 3.333-3.333V43.333c0-1.841-1.492-3.333-3.333-3.333H16.666zm-10 3.333c0-5.523 4.477-10 10-10h46.667c5.523 0 10 4.477 10 10v23.334c0 5.523-4.477 10-10 10H16.666c-5.523 0-10-4.477-10-10V43.333zM40 10c-3.536 0-6.928 1.405-9.428 3.905S26.667 19.797 26.667 23.333V36.667c0 1.841-1.492 3.333-3.334 3.333-1.841 0-3.333-1.492-3.333-3.333V23.333c0-5.304 2.107-10.391 5.858-14.142C29.609 5.44 34.696 3.333 40 3.333s10.391 2.107 14.142 5.858C57.893 12.942 60 18.029 60 23.333V36.667c0 1.841-1.492 3.333-3.333 3.333-1.841 0-3.334-1.492-3.334-3.333V23.333c0-3.536-1.404-6.928-3.904-9.428S43.536 10 40 10z" fill="#FEFEFE"/>
</svg> 