<svg width="80" height="80" viewBox="0 0 80 80" fill="none" xmlns="http://www.w3.org/2000/svg">
<path fill-rule="evenodd" clip-rule="evenodd" d="M10 16.667C8.159 16.667 6.667 18.159 6.667 20s1.492 3.333 3.333 3.333h60c1.841 0 3.333-1.492 3.333-3.333s-1.492-3.333-3.333-3.333H10zm13.333 20c-1.841 0-3.333 1.492-3.333 3.333s1.492 3.333 3.333 3.333h33.334c1.841 0 3.333-1.492 3.333-3.333s-1.492-3.333-3.333-3.333H23.333zm10 20c-1.841 0-3.333 1.492-3.333 3.333s1.492 3.333 3.333 3.333h13.334c1.841 0 3.333-1.492 3.333-3.333s-1.492-3.333-3.333-3.333H33.333z" fill="#FEFEFE"/>
</svg> 